<?xml version="1.0" encoding="UTF-8" standalone="no"?>
<svg
   xmlns:dc="http://purl.org/dc/elements/1.1/"
   xmlns:cc="http://creativecommons.org/ns#"
   xmlns:rdf="http://www.w3.org/1999/02/22-rdf-syntax-ns#"
   xmlns:svg="http://www.w3.org/2000/svg"
   xmlns="http://www.w3.org/2000/svg"
   version="1.1"
   id="svg2"
   xml:space="preserve"
   width="1092.2708"
   height="1092.2667"
   viewBox="0 0 1092.2708 1092.2667"><metadata
     id="metadata8"><rdf:RDF><cc:Work
         rdf:about=""><dc:format>image/svg+xml</dc:format><dc:type
           rdf:resource="http://purl.org/dc/dcmitype/StillImage" /></cc:Work></rdf:RDF></metadata><defs
     id="defs6"><clipPath
       clipPathUnits="userSpaceOnUse"
       id="clipPath18"><path
         d="M 0,819.2 H 819.203 V 0 H 0 Z"
         id="path16" /></clipPath></defs><g
     id="g10"
     transform="matrix(1.3333333,0,0,-1.3333333,0,1092.2667)"><g
       id="g12"><g
         id="g14"
         clip-path="url(#clipPath18)"><g
           id="g20"
           transform="translate(426.6985,282.0369)"><path
             d="m 0,0 c -1.949,-0.028 -3.828,0.707 -5.242,2.051 l -123.57,123.589 c -1.449,1.476 -2.219,3.489 -2.121,5.558 0.097,2.067 1.05,4 2.632,5.336 17.168,14.442 38.883,22.36 61.317,22.363 4,-0.01 7.992,-0.276 11.957,-0.8 43.453,-5.585 77.476,-40.125 82.41,-83.657 0.434,-3.496 0.645,-7.018 0.633,-10.546 C 28.02,41.461 20.098,19.746 5.653,2.582 4.309,1.015 2.387,0.062 0.328,-0.06 Z m -157.316,61.582 c 0.222,4.69 4.094,8.379 8.793,8.379 4.699,0 8.57,-3.689 8.797,-8.379 0.043,-38.841 31.523,-70.313 70.363,-70.349 4.695,-0.225 8.383,-4.093 8.383,-8.793 0,-4.699 -3.688,-8.57 -8.383,-8.796 -48.551,0.046 -87.906,39.382 -87.977,87.938 z M 181.586,-28.996 83.289,69.301 c -2.789,2.843 -2.789,7.397 0,10.242 l 27.176,27.172 -25.414,25.418 -42.453,-42.478 c -9.703,41.099 -41.539,73.337 -82.512,83.555 l 41.942,41.961 -26.254,26.235 -27.157,-27.177 c -2.839,-2.789 -7.394,-2.789 -10.238,0 l -98.297,98.302 c -2.801,2.836 -2.801,7.399 0,10.238 l 62.008,62.032 c 2.844,2.788 7.399,2.788 10.242,0 l 98.176,-98.176 c 2.789,-2.844 2.789,-7.399 0,-10.242 l -22.527,-22.525 26.254,-26.254 66.82,66.822 c 3.301,3.3 7.777,5.156 12.441,5.156 4.668,0 9.145,-1.856 12.442,-5.156 l 58.14,-58.161 c 3.336,-3.282 5.215,-7.762 5.215,-12.441 0,-4.677 -1.879,-9.16 -5.215,-12.441 l -66.824,-66.841 25.414,-25.413 22.528,22.522 c 1.355,1.364 3.199,2.125 5.121,2.125 1.922,0 3.761,-0.761 5.121,-2.125 l 98.297,-98.175 c 2.836,-2.872 2.836,-7.489 0,-10.36 l -62.032,-62.012 c -2.855,-2.757 -7.382,-2.757 -10.238,0 z m -391.68,90.578 c 0.227,4.69 4.098,8.379 8.797,8.379 4.7,0 8.571,-3.689 8.797,-8.379 0.067,-67.981 55.16,-123.074 123.137,-123.142 4.695,-0.225 8.383,-4.096 8.383,-8.796 0,-4.696 -3.688,-8.567 -8.383,-8.793 -77.68,0.101 -140.629,63.046 -140.731,140.731 m -52.773,0 c 0.227,4.69 4.098,8.379 8.797,8.379 4.699,0 8.57,-3.689 8.797,-8.379 0.109,-97.117 78.816,-175.813 175.933,-175.914 4.692,-0.228 8.379,-4.099 8.379,-8.798 0,-4.698 -3.687,-8.569 -8.379,-8.797 -106.828,0.114 -193.402,86.681 -193.527,193.509 m -122.871,65.961 c 0,-149.095 89.809,-283.504 227.555,-340.56 137.742,-57.057 296.293,-25.518 401.718,79.907 105.422,105.425 136.961,263.972 79.907,401.718 C 266.387,406.351 131.973,496.164 -17.121,496.164 -220.605,495.926 -385.504,331.026 -385.738,127.543 m 79.004,-289.613 c -138.164,138.171 -159.488,354.698 -50.93,517.167 108.559,162.465 316.77,225.625 497.293,150.843 C 320.153,431.164 422.715,239.276 384.594,47.633 346.469,-144.013 178.281,-282.035 -17.121,-282.035 c -108.683,-0.293 -212.969,42.905 -289.613,119.965"
             style="fill:#1296db;fill-opacity:1;fill-rule:nonzero;stroke:none"
             id="path22" /></g></g></g></g></svg>
